<svg width="337" height="300" viewBox="0 0 337 300" fill="none" xmlns="http://www.w3.org/2000/svg">
<g opacity="0.7">
<mask id="mask0_3888_155612" style="mask-type:alpha" maskUnits="userSpaceOnUse" x="0" y="0" width="337" height="300">
<g clip-path="url(#clip0_3888_155612)">
<rect width="337" height="300" transform="matrix(-1 0 0 1 337 0)" fill="#EBEBEB"/>
</g>
</mask>
<g mask="url(#mask0_3888_155612)">
<path fill-rule="evenodd" clip-rule="evenodd" d="M902.256 887.747L902.256 968.46H901.086V887.747H821.545V968.46H820.375V887.747H740.826V968.46H739.656V887.747H660.115V968.46H658.945V887.747H579.404V968.46H578.234V887.747H498.693V968.46H497.523V887.747H417.982V968.46H416.812V887.747H337.263V968.46H336.094V887.747H256.552V968.46H255.383V887.747H175.842V968.46H174.672V887.747H95.1228V968.46H93.9531V887.747H14.4119V968.46H13.2421V887.747H-66.2991V968.46H-67.4688V887.747H-147.01V968.46H-148.18V887.747H-227.729V968.46H-228.898V887.747H-308.432V968.46H-309.602V887.747H-389.151V968.46H-390.32V887.747H-469.862V968.46H-471.031V887.747H-550.573V968.46H-551.742V887.747L-650 887.747V886.577L-551.742 886.577V807.034L-650 807.034V805.864L-551.742 805.864V726.322L-650 726.322V725.152L-551.742 725.152V645.608L-650 645.608V644.439L-551.742 644.438V564.896L-650 564.896V563.726L-551.742 563.726V484.183L-650 484.184V483.014L-551.742 483.014V403.471L-650 403.471V402.301L-551.742 402.301V322.758L-650 322.758V321.589L-551.742 321.589V242.045L-650 242.045V240.876L-551.742 240.876L-551.742 161.332L-650 161.333V160.163L-551.742 160.163V80.6201L-650 80.6201V79.4504L-551.742 79.4503V-0.0923462L-650 -0.0922852V-1.26202L-551.742 -1.26208V-80.8052L-650 -80.8052V-81.9749L-551.742 -81.975V-161.519L-650 -161.519V-162.688L-551.742 -162.688V-242.231L-650 -242.231V-243.401L-551.742 -243.401V-322.944L-650 -322.944V-324.114L-551.742 -324.114V-403.656L-650 -403.656V-404.826L-551.742 -404.826V-484.369L-650 -484.369V-485.539L-551.742 -485.539V-565.082L-650 -565.082V-566.251L-551.742 -566.251V-644.625H-550.573V-566.251H-471.031V-644.625H-469.862V-566.251L-390.32 -566.251V-644.625H-389.151V-566.251L-309.602 -566.251V-644.625H-308.432V-566.251L-228.899 -566.251V-644.625H-227.729V-566.251L-148.18 -566.251V-644.625H-147.01V-566.251L-67.4689 -566.251V-644.625H-66.2991V-566.251L13.2421 -566.251V-644.625H14.4118V-566.251L93.953 -566.251V-644.625H95.1227V-566.251L174.672 -566.251V-644.625H175.841V-566.251L255.383 -566.251V-644.625H256.552V-566.251L336.094 -566.251V-644.625H337.263V-566.251L416.812 -566.251V-644.625H417.982V-566.251L497.523 -566.251V-644.625H498.693V-566.251L578.234 -566.251V-644.625H579.404V-566.251L658.945 -566.251V-644.625H660.115V-566.251L739.656 -566.251V-644.625H740.826V-566.251L820.375 -566.251V-644.625H821.545V-566.251L901.086 -566.251V-644.625H902.256V-566.251L1000.52 -566.251L1000.52 -565.082L902.256 -565.082V-485.539L1000.52 -485.539L1000.52 -484.369L902.256 -484.369V-404.826L1000.52 -404.826L1000.52 -403.656L902.256 -403.656V-324.114H1000.52L1000.52 -322.944H902.256V-243.401H1000.52L1000.52 -242.232H902.256V-162.688H1000.52L1000.52 -161.519H902.256V-81.975H1000.52L1000.52 -80.8053H902.256V-1.26215H1000.52L1000.52 -0.0924072H902.256V79.4503H1000.52L1000.52 80.62H902.256V160.163H1000.52L1000.52 161.332H902.256V240.876H1000.52L1000.52 242.045H902.256V321.588H1000.52L1000.52 322.758H902.256V402.301H1000.52L1000.52 403.471H902.256V483.014H1000.52L1000.52 484.183H902.256V563.726H1000.52L1000.52 564.896H902.256V644.438H1000.52L1000.52 645.608H902.256V725.152H1000.52L1000.52 726.322H902.256V805.864H1000.52L1000.52 807.034H902.256V886.577H1000.52L1000.52 887.747H902.256ZM-550.573 -565.082H-471.031V-485.539H-550.573V-565.082ZM-550.573 -484.369H-471.031V-404.826H-550.573V-484.369ZM-550.573 -403.656H-471.031V-324.114H-550.573V-403.656ZM-550.573 -322.944H-471.031V-243.401H-550.573V-322.944ZM-550.573 -242.231H-471.031V-162.688H-550.573V-242.231ZM-550.573 -161.519H-471.031V-81.975H-550.573V-161.519ZM-550.573 -80.8052H-471.031V-1.26208H-550.573V-80.8052ZM-550.573 -0.0923462H-471.031V79.4503H-550.573V-0.0923462ZM-550.573 80.6201H-471.031V160.163H-550.573V80.6201ZM-550.573 161.332H-471.031L-471.031 240.876H-550.573V161.332ZM-550.573 242.045H-471.031V321.589H-550.573V242.045ZM-550.573 322.758H-471.031V402.301H-550.573V322.758ZM-550.573 403.471H-471.031V483.014H-550.573V403.471ZM-550.573 484.183H-471.031V563.726H-550.573V484.183ZM-550.573 564.896H-471.031V644.438H-550.573V564.896ZM-550.573 645.608H-471.031V725.152H-550.573V645.608ZM-550.573 726.322H-471.031V805.864H-550.573V726.322ZM-550.573 807.034H-471.031V886.577H-550.573V807.034ZM-469.862 807.034V886.577H-390.32V807.034H-469.862ZM-469.862 726.322V805.864H-390.32V726.322H-469.862ZM-469.862 645.608V725.152H-390.32V645.608H-469.862ZM-469.862 564.896V644.438H-390.32V564.896H-469.862ZM-469.862 484.183V563.726H-390.32V484.183H-469.862ZM-469.862 403.471V483.014H-390.32V403.471H-469.862ZM-469.862 322.758V402.301H-390.32V322.758L-469.862 322.758ZM-469.862 242.045V321.589L-390.32 321.588V242.045L-469.862 242.045ZM-469.862 161.332V240.876L-390.32 240.876L-390.32 161.332L-469.862 161.332ZM-469.862 80.6201V160.163L-390.32 160.163V80.62L-469.862 80.6201ZM-469.862 -0.0923462V79.4503L-390.32 79.4503V-0.0924072L-469.862 -0.0923462ZM-469.862 -80.8052V-1.26208L-390.32 -1.26215V-80.8053L-469.862 -80.8052ZM-469.862 -161.519V-81.975L-390.32 -81.975V-161.519L-469.862 -161.519ZM-469.862 -242.231V-162.688L-390.32 -162.688V-242.232L-469.862 -242.231ZM-469.862 -322.944V-243.401L-390.32 -243.401V-322.944L-469.862 -322.944ZM-469.862 -403.656V-324.114L-390.32 -324.114V-403.656L-469.862 -403.656ZM-469.862 -484.369V-404.826L-390.32 -404.826V-484.369L-469.862 -484.369ZM-469.862 -565.082V-485.539L-390.32 -485.539V-565.082L-469.862 -565.082ZM-389.151 -565.082H-309.602V-485.539H-389.151V-565.082ZM-389.151 -484.369H-309.602V-404.826H-389.151V-484.369ZM-389.151 -403.656H-309.602V-324.114H-389.151V-403.656ZM-389.151 -322.944H-309.602V-243.401H-389.151V-322.944ZM-389.151 -242.232H-309.602V-162.688H-389.151V-242.232ZM-389.151 -161.519H-309.602V-81.975H-389.151V-161.519ZM-389.151 -80.8053H-309.602V-1.26215H-389.151V-80.8053ZM-389.151 -0.0924072H-309.602V79.4503H-389.151V-0.0924072ZM-389.151 80.62H-309.602V160.163H-389.151V80.62ZM-389.151 161.332H-309.602L-309.602 240.876H-389.151V161.332ZM-389.151 242.045H-309.602V321.588H-389.151V242.045ZM-389.151 322.758H-309.602V402.301H-389.151V322.758ZM-389.151 403.471H-309.602V483.014H-389.151V403.471ZM-389.151 484.183H-309.602V563.726H-389.151V484.183ZM-389.151 564.896H-309.602V644.438H-389.151V564.896ZM-389.151 645.608H-309.602V725.152H-389.151V645.608ZM-389.151 726.322H-309.602V805.864H-389.151V726.322ZM-389.151 807.034H-309.602V886.577H-389.151V807.034ZM-308.432 807.034V886.577H-228.898V807.034H-308.432ZM-308.432 726.322V805.864H-228.898V726.322H-308.432ZM-308.432 645.608V725.152H-228.898V645.608H-308.432ZM-308.432 564.896V644.438H-228.898V564.896H-308.432ZM-308.432 484.183V563.726H-228.898V484.183H-308.432ZM-308.432 403.471V483.014H-228.898V403.471H-308.432ZM-308.432 322.758V402.301H-228.898V322.758H-308.432ZM-308.432 242.045V321.588H-228.898V242.045H-308.432ZM-308.432 161.332V240.876H-228.898L-228.899 161.332H-308.432ZM-308.432 80.62V160.163H-228.899V80.62H-308.432ZM-308.432 -0.0924072V79.4503H-228.899V-0.0924072H-308.432ZM-308.432 -80.8053V-1.26215H-228.899V-80.8053H-308.432ZM-308.432 -161.519V-81.975H-228.899V-161.519L-308.432 -161.519ZM-308.432 -242.232V-162.688L-228.899 -162.688V-242.232L-308.432 -242.232ZM-308.432 -322.944V-243.401L-228.899 -243.401V-322.944L-308.432 -322.944ZM-308.432 -403.656V-324.114L-228.899 -324.114V-403.656L-308.432 -403.656ZM-308.432 -484.369V-404.826L-228.899 -404.826V-484.369L-308.432 -484.369ZM-308.432 -565.082V-485.539L-228.899 -485.539V-565.082L-308.432 -565.082ZM-227.729 -565.082L-148.18 -565.082V-485.539H-227.729V-565.082ZM-227.729 -484.369H-148.18V-404.826H-227.729V-484.369ZM-227.729 -403.656H-148.18V-324.114H-227.729V-403.656ZM-227.729 -322.944H-148.18V-243.401H-227.729V-322.944ZM-227.729 -242.232H-148.18V-162.688H-227.729V-242.232ZM-227.729 -161.519H-148.18V-81.975H-227.729V-161.519ZM-227.729 -80.8053H-148.18V-1.26215H-227.729V-80.8053ZM-227.729 -0.0924072H-148.18V79.4503H-227.729V-0.0924072ZM-227.729 80.62H-148.18V160.163H-227.729V80.62ZM-227.729 161.332H-148.18L-148.18 240.876H-227.729V161.332ZM-227.729 242.045H-148.18V321.588H-227.729V242.045ZM-227.729 322.758H-148.18V402.301H-227.729V322.758ZM-227.729 403.471H-148.18V483.014H-227.729V403.471ZM-227.729 484.183H-148.18V563.726H-227.729V484.183ZM-227.729 564.896H-148.18V644.438H-227.729V564.896ZM-227.729 645.608H-148.18V725.152H-227.729V645.608ZM-227.729 726.322H-148.18V805.864H-227.729V726.322ZM-227.729 807.034H-148.18V886.577H-227.729V807.034ZM-147.01 807.034V886.577H-67.4688V807.034H-147.01ZM-147.01 726.322V805.864H-67.4688V726.322H-147.01ZM-147.01 645.608V725.152H-67.4688V645.608H-147.01ZM-147.01 564.896V644.438H-67.4688V564.896H-147.01ZM-147.01 484.183V563.726H-67.4688V484.183H-147.01ZM-147.01 403.471V483.014H-67.4688V403.471H-147.01ZM-147.01 322.758V402.301H-67.4688V322.758H-147.01ZM-147.01 242.045V321.588H-67.4688V242.045H-147.01ZM-147.01 161.332V240.876H-67.4688L-67.4689 161.332H-147.01ZM-147.01 80.62V160.163H-67.4689V80.62H-147.01ZM-147.01 -0.0924072V79.4503H-67.4689V-0.0924072H-147.01ZM-147.01 -80.8053V-1.26215H-67.4689V-80.8053H-147.01ZM-147.01 -161.519V-81.975H-67.4689V-161.519L-147.01 -161.519ZM-147.01 -242.232V-162.688L-67.4689 -162.688V-242.232L-147.01 -242.232ZM-147.01 -322.944V-243.401L-67.4689 -243.401V-322.944L-147.01 -322.944ZM-147.01 -403.656V-324.114L-67.4689 -324.114V-403.656L-147.01 -403.656ZM-147.01 -484.369V-404.826L-67.4689 -404.826V-484.369L-147.01 -484.369ZM-147.01 -565.082V-485.539L-67.4689 -485.539V-565.082L-147.01 -565.082ZM-66.2991 -565.082L13.2421 -565.082V-485.539H-66.2991V-565.082ZM-66.2991 -484.369H13.2421V-404.826H-66.2991V-484.369ZM-66.2991 -403.656H13.2421V-324.114H-66.2991V-403.656ZM-66.2991 -322.944H13.2421V-243.401H-66.2991V-322.944ZM-66.2991 -242.232H13.2421V-162.688H-66.2991V-242.232ZM-66.2991 -161.519H13.2421V-81.975H-66.2991V-161.519ZM-66.2991 -80.8053H13.2421V-1.26215H-66.2991V-80.8053ZM-66.2991 -0.0924072H13.2421V79.4503H-66.2991V-0.0924072ZM-66.2991 80.62H13.2421V160.163H-66.2991V80.62ZM-66.2991 161.332H13.2421L13.2421 240.876H-66.2991V161.332ZM-66.2991 242.045H13.2421V321.588H-66.2991V242.045ZM-66.2991 322.758H13.2421V402.301H-66.2991V322.758ZM-66.2991 403.471H13.2421V483.014H-66.2991V403.471ZM-66.2991 484.183H13.2421V563.726H-66.2991V484.183ZM-66.2991 564.896H13.2421V644.438H-66.2991V564.896ZM-66.2991 645.608H13.2421V725.152H-66.2991V645.608ZM-66.2991 726.322H13.2421V805.864H-66.2991V726.322ZM-66.2991 807.034H13.2421V886.577H-66.2991V807.034ZM14.4119 807.034V886.577H93.9531V807.034H14.4119ZM14.4119 726.322V805.864H93.9531V726.322H14.4119ZM14.4119 645.608V725.152H93.9531V645.608H14.4119ZM14.4119 564.896V644.438H93.9531V564.896H14.4119ZM14.4119 484.183V563.726H93.9531V484.183H14.4119ZM14.4119 403.471V483.014H93.9531V403.471H14.4119ZM14.4119 322.758V402.301H93.9531V322.758H14.4119ZM14.4119 242.045V321.588H93.9531V242.045H14.4119ZM14.4118 161.332L14.4119 240.876H93.9531L93.953 161.332H14.4118ZM14.4118 80.62V160.163H93.953V80.62H14.4118ZM14.4118 -0.0924072V79.4503H93.953V-0.0924072H14.4118ZM14.4118 -80.8053V-1.26215H93.953V-80.8053H14.4118ZM14.4118 -161.519V-81.975H93.953V-161.519L14.4118 -161.519ZM14.4118 -242.232V-162.688L93.953 -162.688V-242.232L14.4118 -242.232ZM14.4118 -322.944V-243.401L93.953 -243.401V-322.944L14.4118 -322.944ZM14.4118 -403.656V-324.114L93.953 -324.114V-403.656L14.4118 -403.656ZM14.4118 -484.369V-404.826L93.953 -404.826V-484.369L14.4118 -484.369ZM14.4118 -565.082V-485.539L93.953 -485.539V-565.082L14.4118 -565.082ZM95.1227 -565.082L174.672 -565.082V-485.539H95.1227V-565.082ZM95.1227 -484.369H174.672V-404.826H95.1227V-484.369ZM95.1227 -403.656H174.672V-324.114H95.1227V-403.656ZM95.1227 -322.944H174.672V-243.401H95.1227V-322.944ZM95.1227 -242.232H174.672V-162.688H95.1227V-242.232ZM95.1227 -161.519H174.672V-81.975H95.1227V-161.519ZM95.1227 -80.8053H174.672V-1.26215H95.1227V-80.8053ZM95.1227 -0.0924072H174.672V79.4503H95.1227V-0.0924072ZM95.1227 80.62H174.672V160.163H95.1227V80.62ZM95.1227 161.332H174.672L174.672 240.876H95.1228L95.1227 161.332ZM95.1228 242.045H174.672V321.588H95.1228V242.045ZM95.1228 322.758H174.672V402.301H95.1228V322.758ZM95.1228 403.471H174.672V483.014H95.1228V403.471ZM95.1228 484.183H174.672V563.726H95.1228V484.183ZM95.1228 564.896H174.672V644.438H95.1228V564.896ZM95.1228 645.608H174.672V725.152H95.1228V645.608ZM95.1228 726.322H174.672V805.864H95.1228V726.322ZM95.1228 807.034H174.672V886.577H95.1228V807.034ZM175.842 807.034V886.577H255.383V807.034H175.842ZM175.842 726.322V805.864H255.383V726.322H175.842ZM175.842 645.608V725.152H255.383V645.608H175.842ZM175.842 564.896V644.438H255.383V564.896H175.842ZM175.842 484.183V563.726H255.383V484.183H175.842ZM175.842 403.471V483.014H255.383V403.471H175.842ZM175.842 322.758V402.301H255.383V322.758H175.842ZM175.842 242.045V321.588H255.383V242.045H175.842ZM175.841 161.332L175.842 240.876H255.383L255.383 161.332H175.841ZM175.841 80.62V160.163H255.383V80.62H175.841ZM175.841 -0.0924072V79.4503H255.383V-0.0924072H175.841ZM175.841 -80.8053V-1.26215H255.383V-80.8053H175.841ZM175.841 -161.519V-81.975H255.383V-161.519H175.841ZM175.841 -242.232V-162.688H255.383V-242.232H175.841ZM175.841 -322.944V-243.401H255.383V-322.944H175.841ZM175.841 -403.656V-324.114H255.383V-403.656L175.841 -403.656ZM175.841 -484.369V-404.826L255.383 -404.826V-484.369L175.841 -484.369ZM175.841 -565.082V-485.539L255.383 -485.539V-565.082L175.841 -565.082ZM256.552 -565.082L336.094 -565.082V-485.539H256.552V-565.082ZM256.552 -484.369H336.094V-404.826H256.552V-484.369ZM256.552 -403.656H336.094V-324.114H256.552V-403.656ZM256.552 -322.944H336.094V-243.401H256.552V-322.944ZM256.552 -242.232H336.094V-162.688H256.552V-242.232ZM256.552 -161.519H336.094V-81.975H256.552V-161.519ZM256.552 -80.8053H336.094V-1.26215H256.552V-80.8053ZM256.552 -0.0924072H336.094V79.4503H256.552V-0.0924072ZM256.552 80.62H336.094V160.163H256.552V80.62ZM256.552 161.332H336.094L336.094 240.876H256.552L256.552 161.332ZM256.552 242.045H336.094V321.588H256.552V242.045ZM256.552 322.758H336.094V402.301H256.552V322.758ZM256.552 403.471H336.094V483.014H256.552V403.471ZM256.552 484.183H336.094V563.726H256.552V484.183ZM256.552 564.896H336.094V644.438H256.552V564.896ZM256.552 645.608H336.094V725.152H256.552V645.608ZM256.552 726.322H336.094V805.864H256.552V726.322ZM256.552 807.034H336.094V886.577H256.552V807.034ZM337.263 807.034V886.577H416.812V807.034H337.263ZM337.263 726.322V805.864H416.812V726.322H337.263ZM337.263 645.608V725.152H416.812V645.608H337.263ZM337.263 564.896V644.438H416.812V564.896H337.263ZM337.263 484.183V563.726H416.812V484.183H337.263ZM337.263 403.471V483.014H416.812V403.471H337.263ZM337.263 322.758V402.301H416.812V322.758H337.263ZM337.263 242.045V321.588H416.812V242.045H337.263ZM337.263 161.332L337.263 240.876H416.812L416.812 161.332H337.263ZM337.263 80.62V160.163H416.812V80.62H337.263ZM337.263 -0.0924072V79.4503H416.812V-0.0924072H337.263ZM337.263 -80.8053V-1.26215H416.812V-80.8053H337.263ZM337.263 -161.519V-81.975H416.812V-161.519H337.263ZM337.263 -242.232V-162.688H416.812V-242.232H337.263ZM337.263 -322.944V-243.401H416.812V-322.944H337.263ZM337.263 -403.656V-324.114H416.812V-403.656L337.263 -403.656ZM337.263 -484.369V-404.826L416.812 -404.826V-484.369L337.263 -484.369ZM337.263 -565.082V-485.539L416.812 -485.539V-565.082L337.263 -565.082ZM417.982 -565.082L497.523 -565.082V-485.539H417.982V-565.082ZM417.982 -484.369H497.523V-404.826H417.982V-484.369ZM417.982 -403.656H497.523V-324.114H417.982V-403.656ZM417.982 -322.944H497.523V-243.401H417.982V-322.944ZM417.982 -242.232H497.523L497.523 -162.688H417.982V-242.232ZM417.982 -161.519H497.523V-81.975H417.982V-161.519ZM417.982 -80.8053H497.523V-1.26215H417.982V-80.8053ZM417.982 -0.0924072H497.523V79.4503H417.982V-0.0924072ZM417.982 80.62H497.523V160.163H417.982V80.62ZM417.982 161.332H497.523V240.876H417.982L417.982 161.332ZM417.982 242.045H497.523V321.588H417.982V242.045ZM417.982 322.758H497.523V402.301H417.982V322.758ZM417.982 403.471H497.523V483.014H417.982V403.471ZM417.982 484.183H497.523V563.726H417.982V484.183ZM417.982 564.896H497.523L497.523 644.438H417.982V564.896ZM417.982 645.608H497.523V725.152H417.982V645.608ZM417.982 726.322H497.523V805.864H417.982V726.322ZM417.982 807.034H497.523V886.577H417.982V807.034ZM498.693 807.034V886.577H578.234V807.034H498.693ZM498.693 726.322V805.864H578.234V726.322H498.693ZM498.693 645.608L498.693 725.152H578.234V645.608H498.693ZM498.693 564.896V644.438H578.234L578.234 564.896H498.693ZM498.693 484.183V563.726H578.234V484.183H498.693ZM498.693 403.471V483.014H578.234V403.471H498.693ZM498.693 322.758V402.301H578.234V322.758H498.693ZM498.693 242.045V321.588H578.234V242.045H498.693ZM498.693 161.332L498.693 240.876H578.234V161.332H498.693ZM498.693 80.62V160.163H578.234V80.62H498.693ZM498.693 -0.0924072V79.4503H578.234V-0.0924072H498.693ZM498.693 -80.8053V-1.26215H578.234V-80.8053H498.693ZM498.693 -161.519V-81.975H578.234V-161.519H498.693ZM498.693 -242.232V-162.688H578.234L578.234 -242.232H498.693ZM498.693 -322.944V-243.401H578.234V-322.944H498.693ZM498.693 -403.656L498.693 -324.114H578.234V-403.656L498.693 -403.656ZM498.693 -484.369V-404.826L578.234 -404.826V-484.369L498.693 -484.369ZM498.693 -565.082V-485.539L578.234 -485.539V-565.082L498.693 -565.082ZM579.404 -565.082L658.945 -565.082V-485.539H579.404V-565.082ZM579.404 -484.369H658.945V-404.826H579.404V-484.369ZM579.404 -403.656H658.945V-324.114H579.404L579.404 -403.656ZM579.404 -322.944H658.945V-243.401H579.404V-322.944ZM579.404 -242.232H658.945L658.945 -162.688H579.404V-242.232ZM579.404 -161.519H658.945V-81.975H579.404V-161.519ZM579.404 -80.8053H658.945V-1.26215H579.404V-80.8053ZM579.404 -0.0924072H658.945V79.4503H579.404V-0.0924072ZM579.404 80.62H658.945V160.163H579.404V80.62ZM579.404 161.332H658.945V240.876H579.404L579.404 161.332ZM579.404 242.045H658.945V321.588H579.404V242.045ZM579.404 322.758H658.945V402.301H579.404V322.758ZM579.404 403.471H658.945V483.014H579.404V403.471ZM579.404 484.183H658.945V563.726H579.404V484.183ZM579.404 564.896H658.945L658.945 644.438H579.404V564.896ZM579.404 645.608H658.945V725.152H579.404L579.404 645.608ZM579.404 726.322H658.945V805.864H579.404V726.322ZM579.404 807.034H658.945V886.577H579.404V807.034ZM660.115 807.034V886.577H739.656V807.034H660.115ZM660.115 726.322V805.864H739.656V726.322H660.115ZM660.115 645.608L660.115 725.152H739.656V645.608H660.115ZM660.115 564.896V644.438H739.656L739.656 564.896H660.115ZM660.115 484.183V563.726H739.656V484.183H660.115ZM660.115 403.471V483.014H739.656V403.471H660.115ZM660.115 322.758V402.301H739.656V322.758H660.115ZM660.115 242.045V321.588H739.656V242.045H660.115ZM660.115 161.332L660.115 240.876H739.656V161.332H660.115ZM660.115 80.62V160.163H739.656V80.62H660.115ZM660.115 -0.0924072V79.4503H739.656V-0.0924072H660.115ZM660.115 -80.8053V-1.26215H739.656V-80.8053H660.115ZM660.115 -161.519V-81.975H739.656V-161.519H660.115ZM660.115 -242.232V-162.688H739.656L739.656 -242.232H660.115ZM660.115 -322.944V-243.401H739.656V-322.944H660.115ZM660.115 -403.656L660.115 -324.114H739.656V-403.656H660.115ZM660.115 -484.369V-404.826H739.656V-484.369H660.115ZM660.115 -565.082V-485.539H739.656V-565.082L660.115 -565.082ZM740.826 -565.082L820.375 -565.082V-485.539H740.826V-565.082ZM740.826 -484.369H820.375V-404.826H740.826V-484.369ZM740.826 -403.656H820.375V-324.114H740.826L740.826 -403.656ZM740.826 -322.944H820.375V-243.401H740.826V-322.944ZM740.826 -242.232H820.375V-162.688H740.826V-242.232ZM740.826 -161.519H820.375L820.375 -81.975H740.826V-161.519ZM740.826 -80.8053H820.375V-1.26215H740.826V-80.8053ZM740.826 -0.0924072H820.375V79.4503H740.826V-0.0924072ZM740.826 80.62H820.375V160.163H740.826V80.62ZM740.826 161.332H820.375V240.876H740.826L740.826 161.332ZM740.826 242.045H820.375V321.588H740.826V242.045ZM740.826 322.758H820.375V402.301H740.826V322.758ZM740.826 403.471H820.375V483.014H740.826V403.471ZM740.826 484.183H820.375L820.375 563.726H740.826V484.183ZM740.826 564.896H820.375V644.438H740.826V564.896ZM740.826 645.608H820.375V725.152H740.826L740.826 645.608ZM740.826 726.322H820.375V805.864H740.826V726.322ZM740.826 807.034H820.375V886.577H740.826V807.034ZM821.545 807.034V886.577H901.086V807.034H821.545ZM821.545 726.322V805.864H901.086V726.322H821.545ZM821.545 645.608V725.152H901.086V645.608H821.545ZM821.545 564.896V644.438H901.086V564.896H821.545ZM821.545 484.183V563.726H901.086V484.183H821.545ZM821.545 403.471V483.014H901.086V403.471H821.545ZM821.545 322.758L821.545 402.301H901.086V322.758H821.545ZM821.545 242.045V321.588H901.086V242.045H821.545ZM821.545 161.332V240.876H901.086V161.332H821.545ZM821.545 80.62V160.163H901.086V80.62H821.545ZM821.545 -0.0924072V79.4503H901.086V-0.0924072H821.545ZM821.545 -80.8053V-1.26215H901.086V-80.8053H821.545ZM821.545 -161.519V-81.975H901.086V-161.519H821.545ZM821.545 -242.232V-162.688H901.086V-242.232H821.545ZM821.545 -322.944V-243.401H901.086V-322.944H821.545ZM821.545 -403.656V-324.114H901.086V-403.656H821.545ZM821.545 -484.369L821.545 -404.826H901.086V-484.369H821.545ZM821.545 -565.082V-485.539H901.086V-565.082L821.545 -565.082Z" fill="url(#paint0_radial_3888_155612)" fill-opacity="0.4"/>
<path d="M338 80H256V160H338V80Z" fill="url(#paint1_linear_3888_155612)" fill-opacity="0.03"/>
</g>
</g>
<path d="M288.992 39.5448L294.242 44.9993L303.757 35.4111" stroke="#AAABF8" stroke-width="3" stroke-linecap="round" stroke-linejoin="round"/>
<defs>
<radialGradient id="paint0_radial_3888_155612" cx="0" cy="0" r="1" gradientUnits="userSpaceOnUse" gradientTransform="translate(335.501 -0.500012) rotate(135) scale(238.295 246.691)">
<stop stop-color="#4C4EF0"/>
<stop offset="1" stop-color="#DCE0FB" stop-opacity="0"/>
</radialGradient>
<linearGradient id="paint1_linear_3888_155612" x1="326.648" y1="156.121" x2="277.893" y2="102.65" gradientUnits="userSpaceOnUse">
<stop stop-color="#4C51F0"/>
<stop offset="1" stop-color="white"/>
</linearGradient>
<clipPath id="clip0_3888_155612">
<rect width="337" height="300" fill="white" transform="matrix(-1 0 0 1 337 0)"/>
</clipPath>
</defs>
</svg>
