<svg width="1440" height="122" viewBox="0 0 1440 122" fill="none" xmlns="http://www.w3.org/2000/svg">
<g clip-path="url(#clip0_4083_7009)">
<mask id="mask0_4083_7009" style="mask-type:alpha" maskUnits="userSpaceOnUse" x="0" y="0" width="1443" height="127">
<rect width="1443" height="127" fill="#D9D9D9"/>
<rect x="0.5" y="0.5" width="1442" height="126" stroke="#5D5DCA" stroke-opacity="0.5"/>
</mask>
<g mask="url(#mask0_4083_7009)">
<mask id="mask1_4083_7009" style="mask-type:alpha" maskUnits="userSpaceOnUse" x="-645" y="-2" width="2323" height="274">
<rect x="-644.375" y="-1.19922" width="2321.49" height="273.17" fill="url(#paint0_linear_4083_7009)"/>
<rect x="-643.875" y="-0.699219" width="2320.49" height="272.17" stroke="#5D5DCA" stroke-opacity="0.5"/>
</mask>
<g mask="url(#mask1_4083_7009)">
<path d="M265.418 -46.2256L-2379.51 121.674L-2379.44 122.672L265.481 -45.2276L265.418 -46.2256ZM322.321 -46.2242L-1399.55 121.675L-1399.45 122.67L322.418 -45.2289L322.321 -46.2242ZM379.221 -46.2219L-840.382 121.677L-840.246 122.668L379.358 -45.2312L379.221 -46.2219ZM436.117 -46.2179L-454.949 121.681L-454.764 122.664L436.302 -45.2352L436.117 -46.2179ZM493.005 -46.2107L-156.606 121.688L-156.356 122.657L493.255 -45.2425L493.005 -46.2107ZM549.877 -46.1958L93.325 121.703L93.6701 122.642L550.222 -45.2573L549.877 -46.1958ZM606.72 -46.1598L315.196 121.739L315.695 122.606L607.22 -45.2933L606.72 -46.1598ZM663.508 -46.0497L521.301 121.849L522.064 122.496L664.271 -45.4034L663.508 -46.0497ZM720.31 -45.7266V122.173H721.31V-45.7266H720.31ZM777.348 -45.4034L919.557 122.496L920.32 121.849L778.112 -46.0497L777.348 -45.4034ZM834.401 -45.2933L1125.92 122.606L1126.42 121.739L834.9 -46.1598L834.401 -45.2933ZM891.398 -45.2573L1347.95 122.642L1348.3 121.703L891.743 -46.1958L891.398 -45.2573ZM948.365 -45.2425L1597.98 122.657L1598.23 121.688L948.615 -46.2107L948.365 -45.2425ZM1005.32 -45.2352L1896.38 122.664L1896.57 121.681L1005.5 -46.2179L1005.32 -45.2352ZM1062.26 -45.2312L2281.87 122.668L2282 121.677L1062.4 -46.2219L1062.26 -45.2312ZM1119.2 -45.2289L2841.07 122.67L2841.17 121.675L1119.3 -46.2242L1119.2 -45.2289ZM1176.14 -45.2276L3821.07 122.672L3821.13 121.674L1176.2 -46.2256L1176.14 -45.2276ZM-2379.48 122.673L3821.1 122.673V121.673L-2379.48 121.673V122.673ZM-2048.86 101.685L3490.48 101.685V100.685L-2048.86 100.685V101.685ZM-1718.24 80.6978L3159.87 80.6978V79.6978L-1718.24 79.6978V80.6978ZM-1387.63 59.7104L2829.25 59.7104V58.7104L-1387.63 58.7104V59.7104ZM-1057.01 38.723L2498.64 38.723V37.723L-1057.01 37.723V38.723ZM-726.397 17.7356L2168.02 17.7356V16.7356L-726.397 16.7356V17.7356ZM-395.781 -3.25177L1837.4 -3.25177V-4.25177L-395.781 -4.25177V-3.25177ZM-65.1655 -24.2392L1506.79 -24.2392V-25.2392L-65.1655 -25.2392V-24.2392ZM265.45 -45.2266L1176.17 -45.2266V-46.2266L265.45 -46.2266V-45.2266Z" fill="#5D5DCA" fill-opacity="0.5"/>
</g>
</g>
</g>
<defs>
<linearGradient id="paint0_linear_4083_7009" x1="543.72" y1="-5.40183" x2="543.689" y2="123.378" gradientUnits="userSpaceOnUse">
<stop stop-opacity="0"/>
<stop offset="1"/>
</linearGradient>
<clipPath id="clip0_4083_7009">
<rect width="1440" height="122" fill="white"/>
</clipPath>
</defs>
</svg>
