<svg width="600" height="722" viewBox="0 0 600 722" fill="none" xmlns="http://www.w3.org/2000/svg">
<g clip-path="url(#clip0_5767_10335)">
<path d="M490.365 692.209V732.393L-17.1328 547.467C6.66239 523.677 36.0565 505.284 72.6491 492.489C61.6513 490.69 52.4532 488.89 41.4554 488.89C103.643 444.908 151.233 397.327 171.429 342.349C129.238 324.156 96.2443 298.366 90.8454 258.182C222.619 271.177 235.416 146.627 372.789 124.636C381.987 122.636 387.386 106.243 396.584 95.2472C409.381 75.0553 427.778 54.8633 440.575 38.4699C449.773 29.2735 442.375 14.6793 464.37 12.8801C471.769 11.0808 480.967 12.8801 482.766 14.6793C490.165 23.8757 537.755 86.0509 537.755 104.444C537.755 120.837 521.359 155.623 513.96 185.011C532.156 172.217 548.753 155.823 565.15 137.43C616.339 199.606 517.559 238.19 517.559 289.37C517.559 322.357 546.753 331.553 555.952 379.134C539.555 364.54 532.156 357.143 521.159 355.344C554.152 388.33 559.551 423.117 555.952 463.301C546.753 446.707 535.756 435.712 521.159 430.314C545.154 477.895 554.152 525.476 550.553 569.458C539.755 554.864 526.758 542.069 510.361 534.672C517.759 593.249 515.96 650.026 506.762 705.004C499.563 695.808 493.964 692.209 490.365 692.209Z" fill="url(#paint0_linear_5767_10335)" fill-opacity="0.12"/>
<path d="M307.647 291.17C324.044 285.572 327.843 283.773 344.24 281.974C307.647 314.96 282.052 346.148 293.05 430.114C302.248 419.119 307.847 408.123 324.244 395.328C302.448 464.701 317.045 503.285 353.638 528.875C359.037 516.08 360.836 505.085 370.035 495.888C399.429 558.263 401.228 620.439 390.231 690.011C403.028 677.216 423.224 655.225 436.021 605.844C454.218 616.84 469.015 629.635 483.612 651.626C481.812 602.246 501.808 584.053 485.411 485.093C491.01 490.69 500.008 494.289 507.407 494.289C509.207 466.7 507.407 430.115 489.011 380.734C500.008 382.533 507.407 384.333 520.204 391.73C514.805 371.538 502.008 353.145 472.614 336.752C490.81 331.354 503.608 327.555 511.006 323.957C505.607 311.162 500.008 303.765 487.211 292.769C520.204 228.795 562.196 199.406 556.797 172.017C534.801 183.013 516.405 221.598 479.812 237.991C487.211 175.816 514.605 139.23 514.605 117.239C514.605 100.846 483.612 56.8633 476.213 56.8633C465.215 56.8633 434.022 115.44 410.226 142.829C360.836 199.606 309.447 250.986 307.647 291.17Z" fill="white"/>
<path d="M344.575 282.345L345.725 281.308L344.185 281.477C329.572 283.08 324.902 284.692 312.561 288.952C311.203 289.42 309.752 289.921 308.185 290.458C309.364 270.713 322.476 248.187 341.486 223.527C355.094 205.876 371.674 187.192 388.96 167.711C396.107 159.657 403.375 151.467 410.604 143.157L410.604 143.157C420.513 131.751 431.698 114.955 442.159 99.2478C444.286 96.0534 446.383 92.904 448.434 89.8542C454.508 80.8193 460.17 72.6595 464.996 66.7604C467.41 63.8098 469.602 61.4415 471.52 59.8151C473.462 58.1679 475.032 57.3633 476.213 57.3633C476.561 57.3633 477.033 57.496 477.635 57.8058C478.229 58.1119 478.913 58.5714 479.676 59.1768C481.201 60.3872 482.998 62.1468 484.962 64.3264C488.887 68.683 493.44 74.6724 497.767 81.1805C502.094 87.6882 506.186 94.7012 509.195 101.102C512.213 107.524 514.105 113.26 514.105 117.239C514.105 122.646 512.419 128.987 509.739 136.472C507.977 141.392 505.798 146.773 503.405 152.682C502.158 155.763 500.853 158.986 499.518 162.362C491.738 182.046 483.023 206.782 479.316 237.932L479.212 238.808L480.017 238.447C498.414 230.206 512.22 216.393 524.148 203.317C525.901 201.395 527.612 199.491 529.291 197.622C533.333 193.124 537.188 188.834 540.989 185.012C546.17 179.802 551.212 175.502 556.426 172.769C557.523 179.261 555.94 185.917 552.392 193.225C548.722 200.784 542.974 208.99 536 218.376C534.132 220.889 532.177 223.486 530.152 226.175C517.071 243.551 501.072 264.801 486.767 292.54L486.586 292.891L486.885 293.148C499.488 303.977 505.053 311.27 510.359 323.713C502.946 327.228 490.342 330.971 472.472 336.272L471.333 336.61L472.37 337.188C501.095 353.209 513.863 371.107 519.401 390.694C507.177 383.762 499.827 381.997 489.091 380.241L488.241 380.102L488.542 380.909C506.806 429.934 508.683 466.312 506.938 493.784C499.762 493.636 491.152 490.125 485.765 484.739L484.663 483.638L484.918 485.174C493.109 534.611 492.207 563.852 489.489 586.893C488.69 593.662 487.732 599.909 486.8 605.986C484.637 620.085 482.616 633.266 483.057 649.901C468.728 628.724 454.13 616.203 436.28 605.417L435.706 605.07L435.537 605.719C423.125 653.613 403.75 675.66 390.963 688.566C401.704 619.551 399.724 557.717 370.487 495.675L370.184 495.032L369.681 495.535C365.019 500.196 362.238 505.31 359.949 510.841C358.891 513.399 357.935 516.054 356.95 518.791L356.714 519.447C355.706 522.242 354.656 525.127 353.417 528.108C335.469 515.427 322.942 499.575 317.53 478.396C312.062 457.003 313.839 430.115 324.721 395.478L325.202 393.946L323.936 394.934C312.004 404.246 305.736 412.644 299.708 420.722C297.649 423.48 295.618 426.202 293.398 428.91C288.121 387.602 291.793 359.229 301.258 337.123C310.812 314.812 326.289 298.828 344.575 282.345Z" stroke="url(#paint1_linear_5767_10335)" stroke-opacity="0.3"/>
</g>
<defs>
<linearGradient id="paint0_linear_5767_10335" x1="466.867" y1="30.3926" x2="296.867" y2="598.893" gradientUnits="userSpaceOnUse">
<stop stop-color="#7A82D3"/>
<stop offset="1" stop-color="#4850A6" stop-opacity="0"/>
</linearGradient>
<linearGradient id="paint1_linear_5767_10335" x1="413.867" y1="290.893" x2="423.873" y2="690.011" gradientUnits="userSpaceOnUse">
<stop stop-color="#4C51F0" stop-opacity="0"/>
<stop offset="1" stop-color="#8B8DD7"/>
</linearGradient>
<clipPath id="clip0_5767_10335">
<rect width="600" height="722" fill="white"/>
</clipPath>
</defs>
</svg>
